<svg width="242" height="73" viewBox="0 0 242 73" fill="none" xmlns="http://www.w3.org/2000/svg">
<path d="M11.8601 59.3C15.2501 56.38 18.6301 53.47 22.0701 50.5C27.6301 55.8 34.2101 58.69 41.8901 58.78C49.5801 58.87 56.2301 56.12 62.0001 50.81C65.4401 53.76 68.8501 56.69 72.2601 59.62C57.9401 75.59 29.0601 77.73 11.8601 59.29V59.3Z" fill="#FFF5E6"/>
<path d="M42.16 25.2799C41.56 25.0699 40.91 24.9199 40.31 24.6299C36.67 22.8699 33.05 21.0499 29.39 19.3099C28.7 18.9799 28.49 18.5699 28.52 17.8499C28.57 16.2899 28.5 14.7299 28.54 13.1699C28.57 12.1499 28.13 11.6399 27.15 11.3999C24.69 10.7899 22.26 10.0799 19.81 9.45989C18.94 9.23989 18.28 8.84989 18.24 7.90989C18.2 6.87989 18.92 6.47989 19.81 6.21989C26.73 4.20989 33.64 2.15989 40.59 0.219889C41.63 -0.0701111 42.88 -0.0601111 43.92 0.229889C50.82 2.15989 57.69 4.19989 64.58 6.18989C65.44 6.43989 66.24 6.76989 66.25 7.79989C66.25 8.86989 65.5 9.25989 64.54 9.49989C62.13 10.0999 59.74 10.8099 57.33 11.4099C56.32 11.6599 55.94 12.1899 55.97 13.1899C56.01 14.7499 56.04 16.3199 55.94 17.8699C55.91 18.3399 55.56 18.9999 55.16 19.2099C51.45 21.1099 47.7 22.9499 43.94 24.7699C43.42 25.0199 42.82 25.0999 42.16 25.2899V25.2799Z" fill="#FFF5E6"/>
<path d="M28.7301 22.8799C32.6501 24.7999 36.5201 26.6699 40.3601 28.5999C41.6901 29.2699 42.9001 29.2199 44.2101 28.5599C48.0401 26.6299 51.9101 24.7699 55.7401 22.8899C60.4801 28.9799 59.3701 38.7199 53.3801 44.2399C47.1401 49.9799 37.4601 49.9899 31.1301 44.2399C25.1201 38.7899 24.0101 29.1999 28.7301 22.8799Z" fill="#FFF5E6"/>
<path d="M74.82 56.8898C71.41 53.9598 68 51.0198 64.54 48.0498C67.02 44.8998 68.82 41.4798 69.85 37.6898C71.38 32.0798 71.1 26.5298 69.38 20.9898C68.97 19.6698 68.83 18.1298 69.07 16.7898C69.59 13.8598 72.21 11.8098 75.18 11.6298C78.23 11.4398 81.01 13.0598 81.96 15.9098C86.87 30.6498 84.66 44.2398 75.21 56.6198C75.14 56.7098 75.01 56.7698 74.83 56.8998L74.82 56.8898Z" fill="#FFF5E6"/>
<path d="M19.57 47.72C16.16 50.66 12.78 53.57 9.33005 56.54C6.82005 53.48 4.83005 50.17 3.34005 46.57C-0.749952 36.74 -1.04995 26.76 2.25005 16.67C3.46005 12.97 7.23005 11.1 10.86 12.27C14.44 13.42 16.37 17.2 15.19 20.9C12.19 30.3 13.51 39.03 19.18 47.11C19.3 47.28 19.39 47.46 19.56 47.73L19.57 47.72Z" fill="#FFF5E6"/>
<path d="M131.99 25.21C134.04 27.78 134.34 30.88 135.5 33.87C133.99 33.87 132.66 33.91 131.34 33.84C131.1 33.83 130.77 33.41 130.67 33.12C130.17 31.73 129.76 30.31 129.28 28.92C128.72 27.33 128.12 26.91 126.48 26.9C125.34 26.9 124.2 26.91 123.06 26.93C122.94 26.93 122.83 27.02 122.6 27.11V33.81H118.31V13.98C118.63 13.95 118.96 13.89 119.28 13.89C122.57 13.89 125.87 13.87 129.16 13.89C132.66 13.92 134.65 16.03 134.76 19.51C134.84 21.95 134.47 24.07 131.99 25.2V25.21ZM122.65 23.01C124.64 23.01 126.49 23.03 128.35 23.01C129.27 22.99 130.08 22.59 130.21 21.63C130.37 20.46 130.73 19.19 129.8 18.14C129.65 17.97 129.35 17.84 129.12 17.84C126.98 17.82 124.84 17.83 122.65 17.83V23.03V23.01Z" fill="#FFF5E6"/>
<path d="M212.35 23.9599C212.35 24.9299 212.36 25.8999 212.35 26.8699C212.29 30.5099 209.93 33.4299 206.32 33.8799C204.17 34.1499 201.93 34.1199 199.78 33.8399C196.69 33.4299 194.35 30.8199 194.15 27.6999C193.99 25.1799 193.99 22.6399 194.14 20.1199C194.33 16.9899 196.59 14.3699 199.71 13.9299C201.94 13.6199 204.27 13.5999 206.5 13.8899C209.97 14.3499 212.28 17.2699 212.36 20.7899C212.38 21.8399 212.36 22.8999 212.36 23.9499L212.35 23.9599ZM207.87 23.9899C207.87 23.9899 207.97 23.9899 208.01 23.9899C207.95 22.8099 207.99 21.6199 207.82 20.4599C207.55 18.6499 206.34 17.6599 204.51 17.6199C203.75 17.5999 202.99 17.6199 202.23 17.6199C199.91 17.6399 198.62 18.6899 198.47 20.9799C198.34 22.9099 198.34 24.8699 198.47 26.7999C198.61 28.9899 199.91 30.0899 202.12 30.1499C202.92 30.1699 203.73 30.1699 204.53 30.1299C206.45 30.0499 207.6 29.0599 207.85 27.1499C207.98 26.1099 207.87 25.0499 207.87 23.9899Z" fill="#FFF5E6"/>
<path d="M162.64 27.7499V33.8099H158.32V13.8899C159.17 13.8899 160 13.8899 160.83 13.8899C163.53 13.8899 166.24 13.8799 168.94 13.8899C172.54 13.9099 174.76 16.1399 174.8 19.7499C174.8 20.3399 174.8 20.9299 174.8 21.5199C174.77 25.3999 172.48 27.6999 168.56 27.7399C166.63 27.7599 164.7 27.7399 162.64 27.7399V27.7499ZM162.7 23.8099C164.73 23.8099 166.62 23.8299 168.52 23.8099C169.69 23.7899 170.35 23.0999 170.34 21.9799C170.33 20.5499 171.03 18.8899 169.29 17.8999C169.18 17.8399 169.05 17.8099 168.93 17.8099C166.88 17.8099 164.82 17.8099 162.71 17.8099V23.8199L162.7 23.8099Z" fill="#FFF5E6"/>
<path d="M114.57 21.1699H110.49C110.39 20.7099 110.4 20.1499 110.14 19.7699C109.68 19.0599 109.12 17.9899 108.49 17.8999C106.77 17.6499 104.95 17.5899 103.26 17.9399C101.79 18.2399 101.37 19.7799 101.31 21.1799C101.23 22.9899 101.23 24.8099 101.31 26.6199C101.41 28.9699 102.67 30.1099 105.01 30.1499C105.31 30.1499 105.6 30.1499 105.9 30.1499C109.25 30.1499 110.05 29.4499 110.5 26.0899H114.59C115.15 29.6699 112.78 33.2899 109.25 33.8299C107.11 34.1599 104.86 34.1499 102.71 33.8799C99.38 33.4499 97.12 30.8099 96.97 27.4599C96.86 25.0999 96.87 22.7299 96.97 20.3799C97.1 17.0499 99.34 14.3499 102.65 13.8999C104.88 13.5999 107.22 13.6099 109.44 13.9499C112.77 14.4599 115 17.8099 114.58 21.1799L114.57 21.1699Z" fill="#FFF5E6"/>
<path d="M136.53 13.9698C136.74 13.9298 136.78 13.9098 136.82 13.9098C138.29 13.9198 140 13.4798 141.17 14.0898C142.23 14.6398 142.7 16.3198 143.42 17.5098C144.27 18.9098 145.1 20.3198 146.05 21.9098C147.4 19.6498 148.74 17.5598 149.89 15.3898C150.5 14.2298 151.22 13.7198 152.54 13.8798C153.49 13.9898 154.46 13.8998 155.65 13.8998C154.62 15.6098 153.7 17.1498 152.78 18.6898C152 19.9898 151.3 21.3598 150.4 22.5698C148.62 24.9398 147.82 27.5098 148.19 30.4698C148.32 31.5398 148.21 32.6498 148.21 33.8198H143.86C143.86 31.6098 143.9 29.4298 143.83 27.2498C143.81 26.5698 143.61 25.8298 143.27 25.2498C141.24 21.7998 139.14 18.3898 137.06 14.9598C136.89 14.6798 136.74 14.3898 136.53 13.9898V13.9698Z" fill="#FFF5E6"/>
<path d="M192.97 13.96V17.77C191.29 17.77 189.66 17.82 188.04 17.75C187.08 17.71 186.82 18.05 186.83 18.98C186.87 23.37 186.85 27.76 186.85 32.15C186.85 32.65 186.85 33.16 186.85 33.77H182.44V17.8H176.35V13.96H192.97Z" fill="#FFF5E6"/>
<path d="M224.43 38.7099C228.41 38.7099 232.27 38.4199 236.07 38.7899C239.62 39.1299 241.67 41.9499 241.68 45.4899C241.68 47.7299 241.82 49.9799 241.6 52.1999C241.2 56.1699 238.91 58.2799 234.95 58.4599C232.38 58.5699 229.79 58.5199 227.22 58.4799C225.61 58.4499 224.48 57.4699 224.46 55.9299C224.4 50.1899 224.44 44.4499 224.44 38.7199L224.43 38.7099ZM228.87 42.5199V54.5099C230.63 54.5099 232.31 54.5299 233.99 54.5099C236.08 54.4699 237.17 53.3999 237.23 51.2799C237.28 49.3399 237.27 47.3999 237.23 45.4599C237.2 43.8899 236.16 42.6499 234.62 42.5599C232.74 42.4499 230.84 42.5299 228.87 42.5299V42.5199Z" fill="#FFF5E6"/>
<path d="M185.57 38.5201C189.11 38.5201 192.58 38.4001 196.03 38.5501C200.1 38.7201 202.71 41.6001 202.71 45.6301C202.71 47.5701 202.73 49.5101 202.71 51.4501C202.66 55.7201 200.17 58.3201 195.89 58.4701C193.36 58.5601 190.82 58.5201 188.29 58.4701C186.6 58.4401 185.47 57.3501 185.47 55.7001C185.44 50.1301 185.47 44.5701 185.47 39.0001C185.47 38.8801 185.52 38.7601 185.57 38.5201ZM189.93 54.3901C190.14 54.4401 190.26 54.4901 190.39 54.4901C191.87 54.4901 193.34 54.5101 194.82 54.5001C197.08 54.4801 198.22 53.4901 198.33 51.2601C198.42 49.3301 198.4 47.3801 198.33 45.4501C198.28 43.8901 197.19 42.6401 195.68 42.5501C193.79 42.4401 191.9 42.5201 189.92 42.5201V54.3901H189.93Z" fill="#FFF5E6"/>
<path d="M142.16 58.4299H137.87V38.4999C138.99 38.4999 140.11 38.4999 141.24 38.4999C143.77 38.4999 146.31 38.4699 148.84 38.4999C152.2 38.5499 154.26 40.6499 154.27 43.9899C154.27 44.5399 154.25 45.0899 154.27 45.6299C154.35 47.6499 153.2 48.8999 151.57 49.8599C153.62 52.3999 153.9 55.5399 155.04 58.4799C153.66 58.4799 152.43 58.5399 151.22 58.4399C150.86 58.4099 150.35 58.0099 150.21 57.6599C149.7 56.3299 149.33 54.9399 148.87 53.5799C148.33 51.9799 147.66 51.5099 145.98 51.4899C145.3 51.4899 144.63 51.4899 143.95 51.4899C142.75 51.4899 142.15 52.0699 142.15 53.2299C142.15 54.9099 142.15 56.5999 142.15 58.4199L142.16 58.4299ZM142.17 47.6099C144.26 47.6099 146.2 47.6699 148.13 47.5899C149.18 47.5499 149.81 46.8399 149.89 45.7799C149.94 45.1499 149.93 44.5199 149.89 43.8899C149.85 43.0099 149.36 42.4499 148.47 42.4199C146.62 42.3699 144.76 42.3699 142.91 42.4199C142.66 42.4199 142.21 42.7999 142.2 43.0199C142.14 44.5199 142.17 46.0299 142.17 47.6099Z" fill="#FFF5E6"/>
<path d="M173.98 44.75H170.01C169.59 43.99 169.36 43.05 168.77 42.65C168.15 42.23 167.18 42.29 166.35 42.24C165.55 42.19 164.74 42.21 163.95 42.28C162.98 42.37 162.28 42.79 162.2 43.91C162.12 45.02 162.55 45.69 163.67 45.89C165.45 46.21 167.25 46.48 169.02 46.88C170.12 47.13 171.23 47.47 172.23 47.97C173.65 48.69 174.41 49.92 174.38 51.56C174.38 52.02 174.38 52.49 174.38 52.95C174.37 55.93 172.83 58 169.86 58.42C167.59 58.74 165.21 58.79 162.93 58.53C159.4 58.13 157.44 55.45 157.67 51.77H161.85C161.92 52.14 161.98 52.56 162.09 52.95C162.4 54.04 163.08 54.7 164.26 54.71C165.48 54.72 166.71 54.76 167.93 54.7C168.97 54.65 169.85 54.3 169.98 53.07C170.13 51.62 169.78 51.12 168.25 50.82C166.43 50.46 164.59 50.21 162.77 49.86C160.99 49.52 159.16 48.99 158.39 47.22C157.07 44.19 157.32 39.53 162.02 38.61C164.26 38.17 166.66 38.16 168.94 38.42C172.24 38.8 174.05 41.25 173.99 44.75H173.98Z" fill="#FFF5E6"/>
<path d="M123.12 50.1401V54.5501H133.93V58.4301C133.59 58.4501 133.22 58.4901 132.86 58.4901C129.23 58.4901 125.6 58.4901 121.97 58.4901C119.73 58.4901 118.72 57.4801 118.72 55.2601C118.72 49.7401 118.72 44.2201 118.72 38.6001H133.98V42.3501H123.15V46.3001H133.13V50.1401H123.13H123.12Z" fill="#FFF5E6"/>
<path d="M211.15 38.51C211.91 38.51 212.62 38.5 213.33 38.51C214.46 38.54 215.29 39.08 215.69 40.11C218.03 46.06 220.35 52.02 222.67 57.98C222.71 58.09 222.67 58.22 222.67 58.42H218.22C217.77 57.22 217.37 55.97 216.82 54.8C216.64 54.42 216.07 54.02 215.66 54C213.93 53.91 212.2 53.92 210.47 54C210.09 54.02 209.73 54.47 209.37 54.73C209.31 54.77 209.31 54.88 209.27 54.96C208.79 56.12 208.6 57.85 207.75 58.29C206.61 58.87 204.96 58.43 203.32 58.43C205.93 51.75 208.52 45.16 211.12 38.5L211.15 38.51ZM215.29 50.12C214.56 48.17 213.91 46.42 213.12 44.3C212.31 46.47 211.66 48.25 210.96 50.12H215.29Z" fill="#FFF5E6"/>
<path d="M96.9 38.5401H101.41C103 43.0601 104.59 47.5701 106.28 52.3601C106.53 51.8001 106.7 51.5001 106.81 51.1901C108.19 47.3001 109.58 43.4101 110.91 39.5101C111.17 38.7601 111.49 38.4301 112.33 38.4901C113.45 38.5701 114.58 38.5101 115.88 38.5101C114.96 40.9101 114.11 43.1501 113.25 45.3801C111.77 49.2301 110.3 53.0901 108.79 56.9301C108.57 57.5001 108.17 58.3601 107.76 58.4201C106.5 58.5901 105.1 58.7801 104.16 57.5101C103.94 57.2101 103.74 56.8701 103.61 56.5201C101.41 50.7301 99.21 44.9401 97.02 39.1501C96.96 39.0001 96.95 38.8301 96.9 38.5401Z" fill="#FFF5E6"/>
<path d="M181.61 58.4201H177.41V38.6101H181.61V58.4201Z" fill="#FFF5E6"/>
<path d="M219.06 18.02C219.18 18.63 219.56 18.96 220.23 18.96C220.95 18.96 221.23 18.59 221.23 18.1C221.23 17.59 221 17.3 220.08 17.05C219 16.76 218.62 16.35 218.62 15.63C218.62 14.87 219.12 14.25 220.15 14.25C221.24 14.25 221.69 14.95 221.75 15.62H221.13C221.05 15.17 220.79 14.79 220.12 14.79C219.56 14.79 219.25 15.07 219.25 15.56C219.25 16.05 219.51 16.23 220.31 16.44C221.62 16.79 221.85 17.36 221.85 18.02C221.85 18.84 221.3 19.49 220.18 19.49C219.06 19.49 218.53 18.79 218.43 18.01H219.05L219.06 18.02Z" fill="#FFF5E6"/>
<path d="M227 17.2701C227 16.3201 227 15.3601 227.03 14.8201H227.01C226.81 15.6501 226.07 17.8401 225.55 19.4401H225C224.6 18.1301 223.83 15.6801 223.63 14.8101H223.61C223.65 15.4001 223.66 16.5301 223.66 17.4101V19.4401H223.09V14.3401H224C224.52 15.9201 225.16 17.9701 225.32 18.6201H225.33C225.44 18.1301 226.19 15.8901 226.73 14.3401H227.61V19.4401H227.02V17.2701H227Z" fill="#FFF5E6"/>
</svg>
